<svg width="123" height="36" viewBox="0 0 123 36" fill="none" xmlns="http://www.w3.org/2000/svg">
<path d="M49.4541 5.82812V30H44.4902V5.82812H49.4541ZM57.822 15.8721V30H53.0407V12.0371H57.5231L57.822 15.8721ZM57.1247 20.3877H55.8298C55.8298 19.0596 56.0013 17.8643 56.3444 16.8018C56.6875 15.7282 57.169 14.8151 57.7887 14.0625C58.4085 13.2988 59.1445 12.7178 59.9968 12.3193C60.86 11.9098 61.8229 11.7051 62.8854 11.7051C63.7266 11.7051 64.4958 11.8268 65.193 12.0703C65.8903 12.3138 66.488 12.7012 66.986 13.2324C67.4951 13.7637 67.8825 14.4665 68.1481 15.3408C68.4248 16.2152 68.5632 17.2832 68.5632 18.5449V30H63.7487V18.5283C63.7487 17.7314 63.638 17.1117 63.4167 16.6689C63.1953 16.2262 62.8688 15.9163 62.4372 15.7393C62.0166 15.5511 61.4964 15.457 60.8766 15.457C60.2347 15.457 59.6758 15.5843 59.1999 15.8389C58.735 16.0934 58.3477 16.4476 58.0378 16.9014C57.7389 17.3441 57.5121 17.8643 57.3571 18.4619C57.2022 19.0596 57.1247 19.7015 57.1247 20.3877ZM79.7865 30.332C78.392 30.332 77.1413 30.1107 76.0345 29.668C74.9278 29.2142 73.987 28.5889 73.2123 27.792C72.4486 26.9951 71.862 26.071 71.4525 25.0195C71.043 23.957 70.8382 22.8281 70.8382 21.6328V20.9688C70.8382 19.6074 71.0319 18.3623 71.4193 17.2334C71.8067 16.1045 72.3601 15.125 73.0795 14.2949C73.8099 13.4648 74.6953 12.8285 75.7357 12.3857C76.7761 11.932 77.9492 11.7051 79.2552 11.7051C80.528 11.7051 81.6569 11.9154 82.642 12.3359C83.627 12.7565 84.4515 13.3542 85.1156 14.1289C85.7907 14.9036 86.2998 15.8333 86.6429 16.918C86.986 17.9915 87.1576 19.1868 87.1576 20.5039V22.4961H72.8802V19.3086H82.4593V18.9434C82.4593 18.2793 82.3376 17.6872 82.0941 17.167C81.8617 16.6357 81.5075 16.2152 81.0316 15.9053C80.5557 15.5954 79.947 15.4404 79.2054 15.4404C78.5746 15.4404 78.0323 15.5788 77.5785 15.8555C77.1247 16.1322 76.7539 16.5195 76.4662 17.0176C76.1895 17.5156 75.9792 18.1022 75.8353 18.7773C75.7025 19.4414 75.6361 20.1719 75.6361 20.9688V21.6328C75.6361 22.3522 75.7357 23.0163 75.9349 23.625C76.1452 24.2337 76.4385 24.7594 76.8148 25.2021C77.2022 25.6449 77.667 25.988 78.2093 26.2314C78.7627 26.4749 79.388 26.5967 80.0853 26.5967C80.9486 26.5967 81.751 26.4307 82.4925 26.0986C83.2451 25.7555 83.8926 25.2409 84.4349 24.5547L86.7591 27.0781C86.3828 27.6204 85.8682 28.1406 85.2152 28.6387C84.5733 29.1367 83.7985 29.5462 82.891 29.8672C81.9834 30.1771 80.9486 30.332 79.7865 30.332ZM93.0518 12.0371L96.0235 17.499L99.0782 12.0371H104.175L99.0948 20.8193L104.407 30H99.294L96.0567 24.2227L92.8194 30H87.7061L93.0186 20.8193L87.9385 12.0371H93.0518ZM115.514 25.9492V17.9473C115.514 17.3717 115.42 16.8792 115.232 16.4697C115.044 16.0492 114.751 15.7227 114.352 15.4902C113.965 15.2578 113.461 15.1416 112.842 15.1416C112.31 15.1416 111.851 15.2357 111.464 15.4238C111.076 15.6009 110.777 15.861 110.567 16.2041C110.357 16.5361 110.252 16.929 110.252 17.3828H105.47C105.47 16.6191 105.648 15.8942 106.002 15.208C106.356 14.5218 106.87 13.9186 107.546 13.3984C108.221 12.8672 109.023 12.4521 109.953 12.1533C110.894 11.8545 111.945 11.7051 113.107 11.7051C114.502 11.7051 115.741 11.9375 116.826 12.4023C117.911 12.8672 118.763 13.5645 119.383 14.4941C120.013 15.4238 120.329 16.5859 120.329 17.9805V25.667C120.329 26.652 120.39 27.46 120.511 28.0908C120.633 28.7106 120.81 29.2529 121.043 29.7178V30H116.212C115.979 29.513 115.802 28.9043 115.68 28.1738C115.57 27.4323 115.514 26.6908 115.514 25.9492ZM116.145 19.0596L116.178 21.7656H113.506C112.875 21.7656 112.327 21.8376 111.862 21.9814C111.397 22.1253 111.015 22.3301 110.717 22.5957C110.418 22.8503 110.196 23.1491 110.052 23.4922C109.92 23.8353 109.853 24.2116 109.853 24.6211C109.853 25.0306 109.947 25.4014 110.135 25.7334C110.324 26.0544 110.595 26.3089 110.949 26.4971C111.303 26.6742 111.718 26.7627 112.194 26.7627C112.913 26.7627 113.539 26.6188 114.07 26.3311C114.601 26.0433 115.011 25.6891 115.299 25.2686C115.597 24.848 115.752 24.4495 115.763 24.0732L117.025 26.0986C116.848 26.5524 116.605 27.0228 116.295 27.5098C115.996 27.9967 115.614 28.4561 115.149 28.8877C114.684 29.3083 114.125 29.6569 113.472 29.9336C112.819 30.1992 112.045 30.332 111.148 30.332C110.008 30.332 108.973 30.1051 108.044 29.6514C107.125 29.1865 106.395 28.5501 105.852 27.7422C105.321 26.9232 105.055 25.9935 105.055 24.9531C105.055 24.0124 105.232 23.1768 105.587 22.4463C105.941 21.7158 106.461 21.1016 107.147 20.6035C107.844 20.0944 108.713 19.7126 109.754 19.458C110.794 19.1924 112 19.0596 113.373 19.0596H116.145Z" fill="white"/>
<g clip-path="url(#clip0_35_291)">
<path d="M19.3064 11.3888C21.1725 13.2549 23.1972 15.2795 24.6364 16.7187L27.588 13.7671C28.6895 12.6687 30.1734 12.0393 31.7287 12.0108L20.9652 1.24118C20.4132 0.674209 19.7079 0.280501 18.9357 0.108277C18.1634 -0.0639481 17.3576 -0.00721385 16.6171 0.271531C15.9539 0.506398 15.361 0.905398 14.8936 1.43132C14.4263 1.95724 14.0998 2.59295 13.9445 3.27916C13.7892 3.96537 13.8103 4.67972 14.0057 5.3556C14.2011 6.03148 14.5645 6.64686 15.062 7.14435L19.3064 11.3888Z" fill="#8054FF"/>
<path d="M31.7591 13.84C30.679 13.8634 29.6489 14.2998 28.8808 15.0596L19.3064 24.634L22.258 27.5856C23.3631 28.6826 23.9937 30.1694 24.0143 31.7264L34.7779 20.9628C35.3582 20.3724 35.7505 19.6232 35.9051 18.8099C36.0598 17.9966 35.97 17.1556 35.6469 16.3934C35.3239 15.6311 34.7821 14.9817 34.0901 14.5273C33.3982 14.0728 32.587 13.8336 31.7591 13.84Z" fill="#8054FF"/>
<path d="M11.3907 19.3047L8.43912 22.2563C7.34342 23.3518 5.87142 23.9886 4.32275 24.037L15.0619 34.7761C17.597 37.4064 22.241 35.4889 22.1848 31.8306C22.1855 31.2826 22.0782 30.7398 21.8689 30.2334C21.6596 29.7269 21.3525 29.2667 20.9651 28.8791L11.3907 19.3047Z" fill="#8054FF"/>
<path d="M4.62774 22.1828C5.62474 22.0556 6.54808 21.5907 7.24397 20.8655C7.98679 20.1234 8.92613 19.1829 10.1346 17.9749C12.2872 15.8222 14.94 13.1695 16.7207 11.3888C15.0559 9.72391 13.7264 8.39448 13.7204 8.38838C12.6525 7.2939 12.0362 5.83718 11.9945 4.30859L1.24928 15.0599C-1.7819 18.2627 1.2378 22.547 4.62774 22.1828Z" fill="#8054FF"/>
<path d="M18.7635 13.4406C18.5636 13.2434 18.2942 13.1328 18.0134 13.1328C17.7327 13.1328 17.4632 13.2434 17.2634 13.4406L13.4425 17.2615C13.2453 17.4613 13.1348 17.7308 13.1348 18.0115C13.1348 18.2923 13.2453 18.5617 13.4425 18.7615L17.2634 22.5823C17.4641 22.7779 17.7332 22.8874 18.0134 22.8874C18.2937 22.8874 18.5628 22.7779 18.7635 22.5823L22.5843 18.7615C22.7815 18.5617 22.8921 18.2923 22.8921 18.0115C22.8921 17.7308 22.7815 17.4613 22.5843 17.2615L18.7635 13.4406Z" fill="#A584E2"/>
</g>
<defs>
<clipPath id="clip0_35_291">
<rect width="36" height="36" fill="white"/>
</clipPath>
</defs>
</svg>
