<svg version="1.1" id="Layer_1" xmlns="http://www.w3.org/2000/svg" xmlns:xlink="http://www.w3.org/1999/xlink" x="0px" y="0px"
	 width="100%" viewBox="0 0 489 257" enable-background="new 0 0 489 257" xml:space="preserve">
<path fill="#000000" opacity="1.000000" stroke="none" 
	d="
M460.000000,258.000000 
	C306.717896,258.000000 153.935760,258.000000 1.076821,258.000000 
	C1.076821,172.413315 1.076821,86.826538 1.076821,1.119881 
	C163.999939,1.119881 326.999969,1.119881 489.994934,1.119881 
	C489.994934,86.730804 489.994934,172.365402 489.992432,258.000000 
	C480.159943,258.000000 470.329956,258.000000 460.000000,258.000000 
M405.379974,166.617477 
	C401.313812,164.463470 401.185120,160.538528 400.965973,156.690247 
	C400.616302,150.549927 400.826416,144.328522 399.884125,138.284134 
	C398.803925,131.354767 392.641968,129.412186 387.261627,133.952942 
	C385.805634,135.181717 384.895142,137.056793 384.246216,137.939102 
	C381.681244,135.734406 380.043793,134.326935 378.406342,132.919479 
	C377.286530,135.110748 375.394836,137.235535 375.199280,139.506393 
	C374.714966,145.130249 375.129639,150.825363 374.925598,156.482559 
	C374.843597,158.755814 374.444580,161.170181 373.503265,163.202316 
	C372.944366,164.408829 371.086060,165.552002 369.737610,165.644989 
	C368.972382,165.697754 367.507782,163.661026 367.309235,162.413925 
	C366.631226,158.154343 366.256927,153.834946 365.990509,149.524536 
	C365.723724,145.207947 365.973419,140.845276 365.464203,136.566177 
	C365.303040,135.211777 363.429260,134.061188 362.339264,132.817337 
	C361.296173,134.131866 359.710266,135.309982 359.337616,136.792984 
	C358.783173,138.999161 359.102570,141.421402 359.020874,143.750656 
	C358.828644,149.230621 359.094818,154.790237 358.190033,160.151321 
	C357.811005,162.397095 354.934296,164.221329 353.193146,166.237213 
	C352.157104,164.006897 350.476257,161.851303 350.207489,159.532059 
	C349.441833,152.925430 349.481537,146.227554 348.774750,139.611465 
	C347.939575,131.793396 341.744873,129.309464 335.518005,134.094223 
	C333.875519,135.356339 332.388580,136.820923 330.802551,138.216873 
	C325.262115,130.423172 322.339325,130.084946 313.384552,135.601395 
	C311.913055,134.375580 309.565613,132.085480 309.335693,132.281342 
	C307.448273,133.889053 305.470856,135.744873 304.491577,137.955429 
	C303.677368,139.793457 304.166626,142.213120 304.096466,144.375732 
	C303.861328,151.620621 303.634216,158.865768 303.393585,166.439270 
	C309.567017,169.747192 311.709229,168.537842 311.918762,160.893982 
	C312.005493,157.730637 311.448486,154.419403 312.205566,151.434464 
	C313.411133,146.681320 315.286407,142.062103 317.296082,137.573212 
	C317.820862,136.401047 319.889008,135.919876 321.248322,135.121368 
	C321.904816,136.529221 322.752838,137.885056 323.153870,139.362259 
	C323.446198,140.439133 323.075592,141.679260 323.126709,142.841049 
	C323.441193,149.987900 323.670868,157.142838 324.240936,164.270126 
	C324.343872,165.557281 325.894318,166.728668 326.776489,167.953506 
	C327.935333,166.805328 329.831482,165.807098 330.101685,164.478210 
	C330.689575,161.587402 330.071625,158.455978 330.626740,155.552948 
	C331.676453,150.063217 332.893921,144.557846 334.709106,139.288879 
	C335.320129,137.515274 337.955719,136.439163 339.666016,135.044266 
	C340.441437,137.046967 341.696808,139.001587 341.903168,141.061295 
	C342.548309,147.500443 342.183441,154.093399 343.358215,160.413300 
	C344.766724,167.990768 350.931793,170.215790 357.816895,166.591690 
	C358.985779,165.976410 361.090729,165.348923 361.785614,165.918900 
	C365.808441,169.218506 370.087585,168.982224 374.923187,168.413483 
	C381.113983,167.685333 381.282532,167.870499 381.842957,161.438950 
	C382.388641,155.176666 382.716217,148.785309 384.342804,142.776337 
	C385.092438,140.007050 388.961273,135.873077 390.978485,136.108307 
	C395.400513,136.623947 393.994751,141.501602 394.192657,144.808670 
	C394.510071,150.112854 394.115326,155.521393 395.016113,160.713272 
	C396.141418,167.199081 400.670654,170.162918 406.717224,168.768051 
	C411.468292,164.544769 414.520447,159.460129 414.623108,152.860703 
	C411.756714,157.525909 408.890350,162.191101 405.379974,166.617477 
M280.577454,165.526459 
	C279.515228,164.324066 277.708496,163.231262 277.512787,161.901352 
	C276.329193,153.858902 274.403168,145.549225 280.040771,138.342285 
	C281.333801,136.689285 283.940491,136.063904 285.942627,134.965591 
	C286.815155,136.936996 288.388611,138.895248 288.425873,140.882324 
	C288.528717,146.363373 287.979889,151.856018 287.706055,157.344940 
	C287.450439,162.469055 292.825897,167.825790 296.703613,166.963943 
	C296.454102,161.425446 296.151459,155.990875 295.984467,150.552139 
	C295.871948,146.889038 296.128784,143.207275 295.866364,139.559326 
	C295.742645,137.839279 295.245453,135.744919 294.129456,134.566345 
	C289.088013,129.242218 277.262207,130.948776 274.126221,137.706329 
	C271.356323,143.674988 268.376617,149.717545 269.342438,156.835129 
	C269.610748,158.812668 268.435150,161.414444 267.113525,163.093384 
	C264.031342,167.008804 260.437500,166.204834 259.277252,161.316544 
	C258.401215,157.625732 258.024750,153.746597 257.970398,149.943497 
	C257.803741,138.279236 258.030731,126.608276 257.768280,114.947487 
	C257.722473,112.912514 256.044891,110.914253 255.120987,108.899040 
	C253.804153,110.958717 252.192841,112.897034 251.276108,115.121590 
	C250.684982,116.556038 251.090027,118.410385 251.087921,120.076599 
	C251.076721,128.909866 251.533981,137.775970 250.901535,146.563934 
	C250.530045,151.725876 248.747543,156.880768 246.923096,161.787231 
	C246.360992,163.298874 243.565338,163.979980 241.792389,165.041382 
	C241.262344,162.348297 240.460403,159.665390 240.358948,156.956253 
	C240.326187,156.081772 242.740234,155.261246 242.956299,154.197021 
	C243.265121,152.675919 242.980057,149.757050 242.256226,149.516251 
	C238.338928,148.213028 237.898361,145.365707 237.934479,142.003387 
	C237.966690,139.004105 238.034760,135.995972 237.856842,133.005432 
	C237.366516,124.764427 236.755524,116.530594 236.189682,108.256386 
	C230.740265,109.077385 226.301941,118.968544 228.659286,123.223938 
	C229.728699,125.154396 230.563080,127.420654 230.742966,129.597488 
	C231.180435,134.891800 231.323730,140.225342 231.238647,145.537506 
	C231.217194,146.876556 229.983139,149.271713 229.149612,149.342743 
	C224.682419,149.723404 220.165680,149.522476 215.191101,149.522476 
	C218.988281,142.131363 222.336411,135.614365 225.684525,129.097366 
	C225.269226,128.847488 224.853912,128.597626 224.438614,128.347763 
	C223.959427,128.713455 223.336517,128.984329 223.023132,129.459381 
	C219.629227,134.603973 216.324142,139.807343 212.913834,144.940872 
	C209.698563,149.780762 202.301025,151.208099 201.917847,158.451096 
	C201.875504,159.251450 200.694138,159.973282 200.085052,160.765366 
	C198.251862,163.149338 196.440430,165.550018 194.337875,168.315994 
	C199.491135,169.378662 200.714844,168.935364 203.753250,164.394623 
	C207.878677,158.229416 212.601776,154.299942 220.911819,154.754349 
	C227.809311,155.131500 233.093567,155.164429 235.815140,163.315231 
	C238.037964,169.972305 243.346893,170.270233 247.506729,164.732437 
	C250.285568,161.033081 251.954971,160.803497 254.921402,164.572891 
	C259.286682,170.119781 263.016632,170.338562 267.881348,165.541473 
	C270.485962,162.973053 272.095825,163.297409 274.397491,165.734253 
	C277.292389,168.799118 280.655975,169.290649 285.381378,166.348267 
	C283.121094,165.997406 282.154297,165.847336 280.577454,165.526459 
M173.056839,140.039001 
	C171.987503,138.374222 171.031982,136.621170 169.824142,135.063797 
	C167.599136,132.194946 163.005188,131.635330 160.543243,134.102829 
	C159.917648,134.729858 159.893524,137.198364 160.396317,137.505417 
	C163.334106,139.299500 166.438583,140.893723 169.655716,142.107712 
	C170.496353,142.424927 171.938324,141.148575 173.056839,140.039001 
M124.294395,140.474487 
	C125.606956,140.584381 126.993881,141.004333 128.210129,140.712631 
	C129.316788,140.447250 130.238037,139.408783 131.241013,138.711090 
	C129.957703,137.378845 128.865646,135.266083 127.347054,134.893936 
	C124.960213,134.309006 122.285957,134.896820 119.733406,134.988068 
	C120.013092,136.169647 120.258621,137.361176 120.598511,138.525177 
	C120.675194,138.787781 121.054832,139.002106 121.339684,139.155853 
	C122.064255,139.546890 122.814102,139.891068 124.294395,140.474487 
M154.501892,135.133011 
	C150.842514,133.135422 147.416122,133.953217 144.526093,136.501663 
	C143.975464,136.987198 144.470993,140.009445 145.238342,140.407730 
	C148.739212,142.224838 153.283524,139.786331 154.501892,135.133011 
M135.960953,135.091995 
	C136.849640,135.362915 137.738327,135.633835 138.627014,135.904755 
	C139.019989,133.712173 139.922668,131.445236 139.617615,129.354507 
	C139.430206,128.070145 137.395142,127.055344 136.189728,125.919502 
	C135.543991,127.748901 134.658539,129.539337 134.352219,131.423904 
	C134.195862,132.385910 135.078369,133.516754 135.960953,135.091995 
M160.706711,124.393173 
	C158.011398,125.205566 154.733246,125.769226 156.218857,129.723557 
	C156.515335,130.512680 159.305023,131.115158 160.484695,130.646027 
	C162.239777,129.948059 163.584991,128.219437 165.104630,126.929413 
	C163.879303,126.071648 162.653976,125.213890 160.706711,124.393173 
M122.001221,128.735397 
	C123.831360,130.027222 125.544876,131.589417 127.557724,132.457687 
	C128.222198,132.744324 129.659332,131.239746 130.743179,130.554199 
	C129.316223,128.906616 128.174164,126.742561 126.383293,125.754730 
	C124.542580,124.739403 121.970284,124.689552 122.001221,128.735397 
M135.033936,114.004623 
	C134.503174,115.205116 133.503143,116.428719 133.560837,117.600235 
	C133.632401,119.053696 134.479965,120.525192 135.272507,121.817009 
	C135.373627,121.981812 137.874741,121.302979 138.039474,120.687317 
	C138.641190,118.438629 138.724304,116.051163 139.002808,113.715988 
	C137.812561,113.647667 136.622299,113.579346 135.033936,114.004623 
M113.577431,117.547020 
	C114.241692,118.669212 114.658325,120.149895 115.632790,120.822998 
	C116.855217,121.667397 118.518021,122.028717 120.031235,122.172455 
	C120.348808,122.202621 121.454208,119.851738 121.151512,119.501671 
	C119.630127,117.742142 117.828918,116.188026 115.928047,114.841141 
	C115.699966,114.679535 114.270088,116.214043 113.577431,117.547020 
M148.014084,117.833366 
	C145.929153,118.898468 143.757278,119.839409 141.857742,121.169327 
	C141.588593,121.357780 142.400253,124.291954 143.128815,124.500931 
	C146.804428,125.555199 149.641647,122.067184 148.014084,117.833366 
M156.684021,122.042946 
	C158.338318,120.605385 160.161453,119.306145 161.530548,117.634949 
	C161.881546,117.206512 160.799042,115.603714 160.375122,114.540428 
	C158.504868,115.401001 156.240372,115.893784 154.940903,117.286804 
	C154.345810,117.924736 155.649094,120.333534 156.684021,122.042946 
M364.140778,118.928017 
	C361.033539,118.827118 359.444000,120.517212 359.825531,123.417068 
	C359.960846,124.445457 362.016571,126.199234 362.645081,125.987526 
	C364.094910,125.499161 365.677124,124.217979 366.283173,122.849800 
	C366.653809,122.013161 365.315033,120.419304 364.140778,118.928017 
M131.178528,172.157578 
	C130.819641,173.697815 130.460739,175.238052 130.101837,176.778305 
	C130.657104,177.103119 131.212387,177.427948 131.767654,177.752777 
	C132.533524,176.586014 133.797745,175.483734 133.958878,174.238708 
	C134.269577,171.837738 133.928909,169.356308 133.909683,166.907867 
	C133.882797,163.482254 133.902908,160.056290 133.902908,156.630493 
	C133.438278,156.647659 132.973648,156.664841 132.509018,156.682022 
	C132.128799,161.584610 131.748566,166.487183 131.178528,172.157578 
M111.132408,124.411247 
	C110.509949,125.502922 109.887482,126.594597 109.265015,127.686264 
	C111.274666,128.600342 113.241310,129.648804 115.329605,130.317123 
	C115.756203,130.453629 117.310913,128.773453 117.205757,128.592285 
	C116.382179,127.173340 115.393883,125.797081 114.209221,124.666695 
	C113.735016,124.214226 112.639511,124.412880 111.132408,124.411247 
M113.784698,134.462845 
	C112.958557,133.950470 112.086182,132.951981 111.315735,133.025253 
	C109.624580,133.186050 107.933731,133.776306 106.375366,134.483444 
	C106.118614,134.599960 106.310417,136.877838 106.679001,137.000214 
	C108.446587,137.587204 110.369675,138.086517 112.186897,137.948822 
	C112.876038,137.896591 113.429321,136.051590 113.784698,134.462845 
M129.846466,124.190277 
	C133.191544,120.779434 129.596603,119.380936 127.734032,117.854675 
	C126.943893,117.207222 125.189003,117.737076 123.872581,117.731857 
	C124.880844,119.716660 125.783798,121.767975 126.967300,123.642120 
	C127.285217,124.145538 128.457123,124.109665 129.846466,124.190277 
M147.276764,132.424393 
	C147.888687,132.192459 148.775452,132.137360 149.060196,131.694870 
	C149.861816,130.449158 150.642334,129.088409 150.919250,127.672874 
	C150.995117,127.285179 148.839050,125.846703 148.444901,126.089241 
	C146.875839,127.054779 145.510910,128.422684 144.338364,129.860184 
	C144.211334,130.015915 145.822403,131.589401 147.276764,132.424393 
M164.305038,119.861649 
	C164.523788,123.652229 166.979599,122.825600 168.807541,121.640060 
	C169.913040,120.923058 170.283478,119.072701 170.984177,117.731560 
	C169.238281,117.731789 167.481415,117.625648 165.753830,117.803650 
	C165.296188,117.850815 164.928635,118.772392 164.305038,119.861649 
M116.984833,108.734146 
	C118.009583,110.352409 118.884697,112.110245 120.168655,113.486717 
	C120.473801,113.813850 122.147697,112.864212 123.192009,112.501862 
	C122.521873,111.061203 122.180382,109.219185 121.073036,108.312447 
	C120.252167,107.640282 118.436058,108.183533 116.984833,108.734146 
M105.231071,121.370461 
	C106.814018,121.235924 108.396965,121.101379 109.979912,120.966843 
	C109.453011,119.847000 109.205376,118.184822 108.333115,117.735680 
	C107.056305,117.078232 105.331841,117.290161 103.798149,117.131584 
	C104.102180,118.417503 104.406219,119.703430 105.231071,121.370461 
M151.540054,111.956841 
	C152.750351,114.967308 154.706985,114.013878 155.918686,112.326439 
	C156.789536,111.113678 156.641068,109.168983 156.947311,107.550797 
	C155.446579,108.066910 153.865036,108.432549 152.485138,109.173637 
	C151.937714,109.467651 151.837692,110.594757 151.540054,111.956841 
M117.510849,149.629807 
	C117.761955,150.715088 118.013062,151.800369 118.264168,152.885651 
	C119.659775,152.228333 121.184746,151.739365 122.379814,150.821060 
	C122.790054,150.505814 122.375443,149.117126 122.337669,148.218857 
	C120.861229,148.535095 119.384796,148.851349 117.510849,149.629807 
M138.053528,101.269463 
	C134.942047,99.158287 134.682083,101.965630 134.558441,103.658035 
	C134.481384,104.712708 135.777969,105.867752 136.458099,106.977760 
	C137.207382,105.892281 138.073624,104.864174 138.648117,103.692963 
	C138.876434,103.227486 138.458359,102.444946 138.053528,101.269463 
M136.227036,139.557388 
	C135.610474,140.205902 134.993912,140.854416 134.127853,141.765366 
	C136.165283,142.531921 137.740341,143.124527 139.315414,143.717133 
	C139.690689,143.240463 140.065964,142.763794 140.441238,142.287125 
	C139.233582,141.333450 138.025940,140.379791 136.227036,139.557388 
z"/>
<path fill="#141414" opacity="1.000000" stroke="none" 
	d="
M280.882507,165.611862 
	C282.154297,165.847336 283.121094,165.997406 285.381378,166.348267 
	C280.655975,169.290649 277.292389,168.799118 274.397491,165.734253 
	C272.095825,163.297409 270.485962,162.973053 267.881348,165.541473 
	C263.016632,170.338562 259.286682,170.119781 254.921402,164.572891 
	C251.954971,160.803497 250.285568,161.033081 247.506729,164.732437 
	C243.346893,170.270233 238.037964,169.972305 235.815140,163.315231 
	C233.093567,155.164429 227.809311,155.131500 220.911819,154.754349 
	C212.601776,154.299942 207.878677,158.229416 203.753250,164.394623 
	C200.714844,168.935364 199.491135,169.378662 194.337875,168.315994 
	C196.440430,165.550018 198.251862,163.149338 200.085052,160.765366 
	C200.694138,159.973282 201.875504,159.251450 201.917847,158.451096 
	C202.301025,151.208099 209.698563,149.780762 212.913834,144.940872 
	C216.324142,139.807343 219.629227,134.603973 223.023132,129.459381 
	C223.336517,128.984329 223.959427,128.713455 224.438614,128.347763 
	C224.853912,128.597626 225.269226,128.847488 225.684525,129.097366 
	C222.336411,135.614365 218.988281,142.131363 215.191101,149.522476 
	C220.165680,149.522476 224.682419,149.723404 229.149612,149.342743 
	C229.983139,149.271713 231.217194,146.876556 231.238647,145.537506 
	C231.323730,140.225342 231.180435,134.891800 230.742966,129.597488 
	C230.563080,127.420654 229.728699,125.154396 228.659286,123.223938 
	C226.301941,118.968544 230.740265,109.077385 236.189682,108.256386 
	C236.755524,116.530594 237.366516,124.764427 237.856842,133.005432 
	C238.034760,135.995972 237.966690,139.004105 237.934479,142.003387 
	C237.898361,145.365707 238.338928,148.213028 242.256226,149.516251 
	C242.980057,149.757050 243.265121,152.675919 242.956299,154.197021 
	C242.740234,155.261246 240.326187,156.081772 240.358948,156.956253 
	C240.460403,159.665390 241.262344,162.348297 241.792389,165.041382 
	C243.565338,163.979980 246.360992,163.298874 246.923096,161.787231 
	C248.747543,156.880768 250.530045,151.725876 250.901535,146.563934 
	C251.533981,137.775970 251.076721,128.909866 251.087921,120.076599 
	C251.090027,118.410385 250.684982,116.556038 251.276108,115.121590 
	C252.192841,112.897034 253.804153,110.958717 255.120972,108.899033 
	C256.044891,110.914253 257.722473,112.912514 257.768280,114.947487 
	C258.030731,126.608276 257.803741,138.279236 257.970398,149.943497 
	C258.024750,153.746597 258.401215,157.625732 259.277252,161.316544 
	C260.437500,166.204834 264.031342,167.008804 267.113525,163.093384 
	C268.435150,161.414444 269.610748,158.812668 269.342438,156.835129 
	C268.376617,149.717545 271.356323,143.674988 274.126221,137.706329 
	C277.262207,130.948776 289.088013,129.242218 294.129456,134.566345 
	C295.245453,135.744919 295.742645,137.839279 295.866364,139.559326 
	C296.128784,143.207275 295.871948,146.889038 295.984467,150.552139 
	C296.151459,155.990875 296.454102,161.425446 296.703613,166.963943 
	C292.825897,167.825790 287.450439,162.469055 287.706055,157.344940 
	C287.979889,151.856018 288.528717,146.363373 288.425873,140.882324 
	C288.388611,138.895248 286.815155,136.936996 285.942627,134.965591 
	C283.940491,136.063904 281.333801,136.689285 280.040771,138.342285 
	C274.403168,145.549225 276.329193,153.858902 277.512787,161.901352 
	C277.708496,163.231262 279.515228,164.324066 280.882507,165.611862 
z"/>
<path fill="#141414" opacity="1.000000" stroke="none" 
	d="
M406.151703,169.105392 
	C400.670654,170.162918 396.141418,167.199081 395.016113,160.713272 
	C394.115326,155.521393 394.510071,150.112854 394.192657,144.808670 
	C393.994751,141.501602 395.400513,136.623947 390.978485,136.108307 
	C388.961273,135.873077 385.092438,140.007050 384.342804,142.776337 
	C382.716217,148.785309 382.388641,155.176666 381.842957,161.438950 
	C381.282532,167.870499 381.113983,167.685333 374.923187,168.413483 
	C370.087585,168.982224 365.808441,169.218506 361.785614,165.918900 
	C361.090729,165.348923 358.985779,165.976410 357.816895,166.591690 
	C350.931793,170.215790 344.766724,167.990768 343.358215,160.413300 
	C342.183441,154.093399 342.548309,147.500443 341.903168,141.061295 
	C341.696808,139.001587 340.441437,137.046967 339.666016,135.044250 
	C337.955719,136.439163 335.320129,137.515274 334.709106,139.288879 
	C332.893921,144.557846 331.676453,150.063217 330.626740,155.552948 
	C330.071625,158.455978 330.689575,161.587402 330.101685,164.478210 
	C329.831482,165.807098 327.935333,166.805328 326.776489,167.953522 
	C325.894318,166.728668 324.343872,165.557281 324.240936,164.270126 
	C323.670868,157.142838 323.441193,149.987900 323.126709,142.841049 
	C323.075592,141.679260 323.446198,140.439133 323.153870,139.362259 
	C322.752838,137.885056 321.904816,136.529221 321.248322,135.121368 
	C319.889008,135.919876 317.820862,136.401047 317.296082,137.573212 
	C315.286407,142.062103 313.411133,146.681320 312.205566,151.434464 
	C311.448486,154.419403 312.005493,157.730637 311.918762,160.893982 
	C311.709229,168.537842 309.567017,169.747192 303.393585,166.439270 
	C303.634216,158.865768 303.861328,151.620621 304.096466,144.375732 
	C304.166626,142.213120 303.677368,139.793457 304.491577,137.955429 
	C305.470856,135.744873 307.448273,133.889053 309.335693,132.281342 
	C309.565613,132.085480 311.913055,134.375580 313.384552,135.601395 
	C322.339325,130.084946 325.262115,130.423172 330.802551,138.216873 
	C332.388580,136.820923 333.875519,135.356339 335.518005,134.094223 
	C341.744873,129.309464 347.939575,131.793396 348.774750,139.611465 
	C349.481537,146.227554 349.441833,152.925430 350.207489,159.532059 
	C350.476257,161.851303 352.157104,164.006897 353.193146,166.237213 
	C354.934296,164.221329 357.811005,162.397095 358.190033,160.151321 
	C359.094818,154.790237 358.828644,149.230621 359.020874,143.750656 
	C359.102570,141.421402 358.783173,138.999161 359.337616,136.792984 
	C359.710266,135.309982 361.296173,134.131866 362.339264,132.817322 
	C363.429260,134.061188 365.303040,135.211777 365.464203,136.566177 
	C365.973419,140.845276 365.723724,145.207947 365.990509,149.524536 
	C366.256927,153.834946 366.631226,158.154343 367.309235,162.413925 
	C367.507782,163.661026 368.972382,165.697754 369.737610,165.644989 
	C371.086060,165.552002 372.944366,164.408829 373.503265,163.202316 
	C374.444580,161.170181 374.843597,158.755814 374.925598,156.482559 
	C375.129639,150.825363 374.714966,145.130249 375.199280,139.506393 
	C375.394836,137.235535 377.286530,135.110748 378.406342,132.919479 
	C380.043793,134.326935 381.681244,135.734406 384.246216,137.939102 
	C384.895142,137.056793 385.805634,135.181717 387.261627,133.952942 
	C392.641968,129.412186 398.803925,131.354767 399.884125,138.284134 
	C400.826416,144.328522 400.616302,150.549927 400.965973,156.690247 
	C401.185120,160.538528 401.313812,164.463470 405.717926,167.113358 
	C406.087799,168.107956 406.119751,168.606674 406.151703,169.105392 
z"/>
<path fill="#0C0A0D" opacity="1.000000" stroke="none" 
	d="
M173.080475,140.321564 
	C171.938324,141.148575 170.496353,142.424927 169.655716,142.107712 
	C166.438583,140.893723 163.334106,139.299500 160.396317,137.505417 
	C159.893524,137.198364 159.917648,134.729858 160.543243,134.102829 
	C163.005188,131.635330 167.599136,132.194946 169.824142,135.063797 
	C171.031982,136.621170 171.987503,138.374222 173.080475,140.321564 
z"/>
<path fill="#141414" opacity="1.000000" stroke="none" 
	d="
M123.924118,140.364243 
	C122.814102,139.891068 122.064255,139.546890 121.339684,139.155853 
	C121.054832,139.002106 120.675194,138.787781 120.598511,138.525177 
	C120.258621,137.361176 120.013092,136.169647 119.733406,134.988068 
	C122.285957,134.896820 124.960213,134.309006 127.347054,134.893936 
	C128.865646,135.266083 129.957703,137.378845 131.241013,138.711090 
	C130.238037,139.408783 129.316788,140.447250 128.210129,140.712631 
	C126.993881,141.004333 125.606956,140.584381 123.924118,140.364243 
z"/>
<path fill="#0C0A0D" opacity="1.000000" stroke="none" 
	d="
M154.653351,135.401947 
	C153.283524,139.786331 148.739212,142.224838 145.238342,140.407730 
	C144.470993,140.009445 143.975464,136.987198 144.526093,136.501663 
	C147.416122,133.953217 150.842514,133.135422 154.653351,135.401947 
z"/>
<path fill="#0C0A0D" opacity="1.000000" stroke="none" 
	d="
M135.726120,134.831635 
	C135.078369,133.516754 134.195862,132.385910 134.352219,131.423904 
	C134.658539,129.539337 135.543991,127.748901 136.189728,125.919502 
	C137.395142,127.055344 139.430206,128.070145 139.617615,129.354507 
	C139.922668,131.445236 139.019989,133.712173 138.627014,135.904755 
	C137.738327,135.633835 136.849640,135.362915 135.726120,134.831635 
z"/>
<path fill="#0C0A0D" opacity="1.000000" stroke="none" 
	d="
M161.067688,124.374649 
	C162.653976,125.213890 163.879303,126.071648 165.104630,126.929413 
	C163.584991,128.219437 162.239777,129.948059 160.484695,130.646027 
	C159.305023,131.115158 156.515335,130.512680 156.218857,129.723557 
	C154.733246,125.769226 158.011398,125.205566 161.067688,124.374649 
z"/>
<path fill="#0C0A0D" opacity="1.000000" stroke="none" 
	d="
M121.906143,128.423370 
	C121.970284,124.689552 124.542580,124.739403 126.383293,125.754730 
	C128.174164,126.742561 129.316223,128.906616 130.743179,130.554199 
	C129.659332,131.239746 128.222198,132.744324 127.557724,132.457687 
	C125.544876,131.589417 123.831360,130.027222 121.906143,128.423370 
z"/>
<path fill="#0C0A0D" opacity="1.000000" stroke="none" 
	d="
M135.233002,113.757820 
	C136.622299,113.579346 137.812561,113.647667 139.002808,113.715988 
	C138.724304,116.051163 138.641190,118.438629 138.039474,120.687317 
	C137.874741,121.302979 135.373627,121.981812 135.272507,121.817009 
	C134.479965,120.525192 133.632401,119.053696 133.560837,117.600235 
	C133.503143,116.428719 134.503174,115.205116 135.233002,113.757820 
z"/>
<path fill="#0C0A0D" opacity="1.000000" stroke="none" 
	d="
M113.487335,117.254707 
	C114.270088,116.214043 115.699966,114.679535 115.928047,114.841141 
	C117.828918,116.188026 119.630127,117.742142 121.151512,119.501671 
	C121.454208,119.851738 120.348808,122.202621 120.031235,122.172455 
	C118.518021,122.028717 116.855217,121.667397 115.632790,120.822998 
	C114.658325,120.149895 114.241692,118.669212 113.487335,117.254707 
z"/>
<path fill="#0C0A0D" opacity="1.000000" stroke="none" 
	d="
M148.283661,117.986542 
	C149.641647,122.067184 146.804428,125.555199 143.128815,124.500931 
	C142.400253,124.291954 141.588593,121.357780 141.857742,121.169327 
	C143.757278,119.839409 145.929153,118.898468 148.283661,117.986542 
z"/>
<path fill="#0C0A0D" opacity="1.000000" stroke="none" 
	d="
M156.387726,121.991089 
	C155.649094,120.333534 154.345810,117.924736 154.940903,117.286804 
	C156.240372,115.893784 158.504868,115.401001 160.375122,114.540436 
	C160.799042,115.603714 161.881546,117.206512 161.530548,117.634949 
	C160.161453,119.306145 158.338318,120.605385 156.387726,121.991089 
z"/>
<path fill="#141414" opacity="1.000000" stroke="none" 
	d="
M364.442383,119.046768 
	C365.315033,120.419304 366.653809,122.013161 366.283173,122.849800 
	C365.677124,124.217979 364.094910,125.499161 362.645081,125.987526 
	C362.016571,126.199234 359.960846,124.445457 359.825531,123.417068 
	C359.444000,120.517212 361.033539,118.827118 364.442383,119.046768 
z"/>
<path fill="#0C0A0D" opacity="1.000000" stroke="none" 
	d="
M131.273438,171.773682 
	C131.748566,166.487183 132.128799,161.584610 132.509018,156.682022 
	C132.973648,156.664841 133.438278,156.647659 133.902908,156.630493 
	C133.902908,160.056290 133.882797,163.482254 133.909683,166.907867 
	C133.928909,169.356308 134.269577,171.837738 133.958878,174.238708 
	C133.797745,175.483734 132.533524,176.586014 131.767654,177.752777 
	C131.212387,177.427948 130.657104,177.103119 130.101837,176.778305 
	C130.460739,175.238052 130.819641,173.697815 131.273438,171.773682 
z"/>
<path fill="#0C0A0D" opacity="1.000000" stroke="none" 
	d="
M111.479614,124.363190 
	C112.639511,124.412880 113.735016,124.214226 114.209221,124.666695 
	C115.393883,125.797081 116.382179,127.173340 117.205757,128.592285 
	C117.310913,128.773453 115.756203,130.453629 115.329605,130.317123 
	C113.241310,129.648804 111.274666,128.600342 109.265015,127.686264 
	C109.887482,126.594597 110.509949,125.502922 111.479614,124.363190 
z"/>
<path fill="#0C0A0D" opacity="1.000000" stroke="none" 
	d="
M113.914612,134.743286 
	C113.429321,136.051590 112.876038,137.896591 112.186897,137.948822 
	C110.369675,138.086517 108.446587,137.587204 106.679001,137.000214 
	C106.310417,136.877838 106.118614,134.599960 106.375366,134.483444 
	C107.933731,133.776306 109.624580,133.186050 111.315735,133.025253 
	C112.086182,132.951981 112.958557,133.950470 113.914612,134.743286 
z"/>
<path fill="#0C0A0D" opacity="1.000000" stroke="none" 
	d="
M129.541733,124.255814 
	C128.457123,124.109665 127.285217,124.145538 126.967300,123.642120 
	C125.783798,121.767975 124.880844,119.716660 123.872581,117.731857 
	C125.189003,117.737076 126.943893,117.207222 127.734032,117.854675 
	C129.596603,119.380936 133.191544,120.779434 129.541733,124.255814 
z"/>
<path fill="#0C0A0D" opacity="1.000000" stroke="none" 
	d="
M146.952011,132.464813 
	C145.822403,131.589401 144.211334,130.015915 144.338364,129.860184 
	C145.510910,128.422684 146.875839,127.054779 148.444901,126.089241 
	C148.839050,125.846703 150.995117,127.285179 150.919250,127.672874 
	C150.642334,129.088409 149.861816,130.449158 149.060196,131.694870 
	C148.775452,132.137360 147.888687,132.192459 146.952011,132.464813 
z"/>
<path fill="#0C0A0D" opacity="1.000000" stroke="none" 
	d="
M406.434448,168.936722 
	C406.119751,168.606674 406.087799,168.107956 406.039917,167.232773 
	C408.890350,162.191101 411.756714,157.525909 414.623108,152.860703 
	C414.520447,159.460129 411.468292,164.544769 406.434448,168.936722 
z"/>
<path fill="#0C0A0D" opacity="1.000000" stroke="none" 
	d="
M164.412384,119.577057 
	C164.928635,118.772392 165.296188,117.850815 165.753830,117.803650 
	C167.481415,117.625648 169.238281,117.731789 170.984161,117.731552 
	C170.283478,119.072701 169.913040,120.923058 168.807541,121.640060 
	C166.979599,122.825600 164.523788,123.652229 164.412384,119.577057 
z"/>
<path fill="#0C0A0D" opacity="1.000000" stroke="none" 
	d="
M117.024063,108.459755 
	C118.436058,108.183533 120.252167,107.640282 121.073036,108.312447 
	C122.180382,109.219185 122.521873,111.061203 123.192009,112.501862 
	C122.147697,112.864212 120.473801,113.813850 120.168655,113.486717 
	C118.884697,112.110245 118.009583,110.352409 117.024063,108.459755 
z"/>
<path fill="#0C0A0D" opacity="1.000000" stroke="none" 
	d="
M104.970657,121.179901 
	C104.406219,119.703430 104.102180,118.417503 103.798149,117.131577 
	C105.331841,117.290161 107.056305,117.078232 108.333115,117.735680 
	C109.205376,118.184822 109.453011,119.847000 109.979912,120.966843 
	C108.396965,121.101379 106.814018,121.235924 104.970657,121.179901 
z"/>
<path fill="#0C0A0D" opacity="1.000000" stroke="none" 
	d="
M151.537018,111.649704 
	C151.837692,110.594757 151.937714,109.467651 152.485138,109.173637 
	C153.865036,108.432549 155.446579,108.066910 156.947311,107.550797 
	C156.641068,109.168983 156.789536,111.113678 155.918686,112.326439 
	C154.706985,114.013878 152.750351,114.967308 151.537018,111.649704 
z"/>
<path fill="#0C0A0D" opacity="1.000000" stroke="none" 
	d="
M117.709602,149.398697 
	C119.384796,148.851349 120.861229,148.535095 122.337669,148.218857 
	C122.375443,149.117126 122.790054,150.505814 122.379814,150.821060 
	C121.184746,151.739365 119.659775,152.228333 118.264168,152.885651 
	C118.013062,151.800369 117.761955,150.715088 117.709602,149.398697 
z"/>
<path fill="#0C0A0D" opacity="1.000000" stroke="none" 
	d="
M138.194061,101.538109 
	C138.458359,102.444946 138.876434,103.227486 138.648117,103.692963 
	C138.073624,104.864174 137.207382,105.892281 136.458099,106.977760 
	C135.777969,105.867752 134.481384,104.712708 134.558441,103.658035 
	C134.682083,101.965630 134.942047,99.158287 138.194061,101.538109 
z"/>
<path fill="#0C0A0D" opacity="1.000000" stroke="none" 
	d="
M136.522659,139.491760 
	C138.025940,140.379791 139.233582,141.333450 140.441238,142.287125 
	C140.065964,142.763794 139.690689,143.240463 139.315414,143.717133 
	C137.740341,143.124527 136.165283,142.531921 134.127853,141.765366 
	C134.993912,140.854416 135.610474,140.205902 136.522659,139.491760 
z"/>
</svg>